# xmcd CD database file
#
# Track frame offsets:
#	150
#	17785
#	34140
#	47908
#	66400
#	85183
#	101860
#	118818
#	134900
#	152623
#	177855
#
# Disc length: 2598 seconds
#
# Revision: 0
# Processed by: cddbd v1.5PL3 Copyright (c) Steve Scherf et al.
# Submitted via: CDex 1.51
#
DISCID=9e0a240b
DTITLE=風 - 海風
DYEAR=1977
DGENRE=Japanese Folk
TTITLE0=海風
TTITLE1=冬京
TTITLE2=デッキに佇む女
TTITLE3=酔いしれた男がひとり
TTITLE4=おそかれはやかれ
TTITLE5=歴史と季節の国
TTITLE6=トパーズ色の街
TTITLE7=そんな暮らしの中で
TTITLE8=あの子の素顔
TTITLE9=あいつが生まれた朝
TTITLE10=防波堤
EXTD=YEAR: 1977
EXTT0=
EXTT1=
EXTT2=
EXTT3=
EXTT4=
EXTT5=
EXTT6=
EXTT7=
EXTT8=
EXTT9=
EXTT10=
PLAYORDER=
